# This file uses centimeters as units for non-parametric coordinates.

mtllib murlow.mtl
g default
v 1393.205444 -3642.414551 1655.699951
v 1415.530273 -3642.414551 1655.699951
v 1393.205444 -3585.896973 1655.699951
v 1415.530273 -3585.896973 1655.699951
v 1393.205444 -3585.896973 -1243.242310
v 1415.530273 -3585.896973 -1243.242310
v 1393.205444 -3642.414551 -1243.242310
v 1415.530273 -3642.414551 -1243.242310
v 1393.205444 -3642.414551 -775.595642
v 1393.205444 -3585.896973 -775.595581
v 1415.530273 -3585.896973 -775.595581
v 1415.530273 -3642.414551 -775.595642
v 1393.205444 -3642.414551 -582.711426
v 1393.205444 -3585.896973 -582.711426
v 1415.530273 -3585.896973 -582.711426
v 1415.530273 -3642.414551 -582.711426
v 1393.205444 -3642.414551 -18.355003
v 1393.205444 -3585.896973 -18.354988
v 1415.530273 -3585.896973 -18.354988
v 1415.530273 -3642.414551 -18.355003
v 1393.205444 -3642.414551 173.068695
v 1393.205444 -3585.896973 173.068726
v 1415.530273 -3585.896973 173.068726
v 1415.530273 -3642.414551 173.068695
v 1393.205444 -3642.414551 759.862488
v 1393.205444 -3585.896973 759.862549
v 1415.530273 -3585.896973 759.862549
v 1415.530273 -3642.414551 759.862488
v 1393.205444 -3642.414551 951.604187
v 1393.205444 -3585.896973 951.604187
v 1415.530273 -3585.896973 951.604187
v 1415.530273 -3642.414551 951.604187
v 1393.205444 -3931.691406 -1243.242310
v 1415.530273 -3931.691406 -1243.242310
v 1415.530273 -3931.691406 -775.595642
v 1393.205444 -3931.691406 -775.595642
v 1415.530273 -3931.691406 -582.711426
v 1393.205444 -3931.691406 -582.711426
v 1415.530273 -3931.691406 -18.355003
v 1393.205444 -3931.691406 -18.355003
v 1415.530273 -3931.691406 173.068695
v 1393.205444 -3931.691406 173.068695
v 1415.530273 -3931.691406 759.862488
v 1393.205444 -3931.691406 759.862488
v 1415.530273 -3931.691406 951.604187
v 1393.205444 -3931.691406 951.604187
v 1415.530273 -3931.691406 1655.699951
v 1393.205444 -3931.691406 1655.699951
v 1393.205444 -4231.389648 -1243.242310
v 1415.530273 -4231.389648 -1243.242310
v 1415.530273 -4231.389648 -775.595581
v 1393.205444 -4231.389648 -775.595581
v 1415.530273 -4231.389648 -582.711365
v 1415.530273 -4231.389648 -18.355019
v 1393.205444 -4231.389648 -582.711365
v 1393.205444 -4231.389648 -18.355019
v 1415.530273 -4231.389648 173.068695
v 1415.530273 -4231.389648 759.862488
v 1393.205444 -4231.389648 173.068695
v 1393.205444 -4231.389648 759.862488
v 1415.530273 -4231.389648 951.604187
v 1415.530273 -4231.389648 1655.699951
v 1393.205444 -4231.389648 1655.699951
v 1393.205444 -4231.389648 951.604187
vt 0.217911 0.162666
vt 0.217911 0.001992
vt 0.237329 0.001992
vt 0.237329 0.162666
vt 0.118522 0.162666
vt 0.118522 0.001992
vt 0.217911 0.228937
vt 0.237329 0.228937
vt 0.015551 0.162666
vt 0.015551 0.001992
vt 0.217911 0.422838
vt 0.237329 0.422838
vt 0.118522 0.228937
vt 0.015551 0.228937
vt 0.118522 0.422838
vt 0.237329 0.488607
vt 0.217911 0.488607
vt 0.015551 0.422838
vt 0.118522 0.488607
vt 0.217911 0.690217
vt 0.237329 0.690217
vt 0.015551 0.488607
vt 0.118522 0.690217
vt 0.217911 0.756095
vt 0.237329 0.756095
vt 0.015551 0.690217
vt 0.217911 0.998008
vt 0.237329 0.998008
vt 0.118522 0.756095
vt 0.015551 0.756095
vt 0.118522 0.998008
vt 0.015551 0.998008
vt 0.446275 0.998008
vt 0.446275 0.837334
vt 0.465693 0.837334
vt 0.465693 0.998008
vt 0.346885 0.998008
vt 0.346885 0.837334
vt 0.446275 0.771063
vt 0.465693 0.771063
vt 0.243915 0.998008
vt 0.243915 0.837334
vt 0.446275 0.577162
vt 0.465693 0.577162
vt 0.346885 0.771063
vt 0.243915 0.771063
vt 0.346885 0.577162
vt 0.446275 0.511393
vt 0.465693 0.511393
vt 0.243915 0.577162
vt 0.346885 0.511393
vt 0.446275 0.309783
vt 0.465693 0.309783
vt 0.243915 0.511393
vt 0.346885 0.309783
vt 0.446275 0.243905
vt 0.465693 0.243905
vt 0.243915 0.309783
vt 0.446275 0.001992
vt 0.465693 0.001992
vt 0.346885 0.243905
vt 0.243915 0.243905
vt 0.346885 0.001992
vt 0.243915 0.001992
vt 0.001212 0.837334
vt 0.008883 0.837334
vt 0.008883 0.998008
vt 0.001212 0.998008
vt 0.001212 0.771063
vt 0.008883 0.771063
vt 0.001212 0.577162
vt 0.008883 0.577162
vt 0.001212 0.511393
vt 0.008883 0.511393
vt 0.001212 0.309783
vt 0.008883 0.309783
vt 0.001212 0.243905
vt 0.008883 0.243905
vt 0.001212 0.001992
vt 0.008883 0.001992
vt 0.557251 0.001992
vt 0.564922 0.001992
vt 0.564922 0.068263
vt 0.557251 0.068263
vt 0.585576 0.001992
vt 0.593246 0.001992
vt 0.593246 0.067870
vt 0.585576 0.067870
vt 0.607408 0.067870
vt 0.599738 0.067870
vt 0.599738 0.001992
vt 0.607408 0.001992
vt 0.579084 0.068263
vt 0.571413 0.068263
vt 0.571413 0.001992
vt 0.579084 0.001992
vt 0.472279 0.204352
vt 0.479949 0.204352
vt 0.479949 0.223770
vt 0.472279 0.223770
vt 0.472279 0.104962
vt 0.479949 0.104962
vt 0.472279 0.001992
vt 0.479949 0.001992
vt 0.486441 0.001992
vt 0.494111 0.001992
vt 0.494111 0.021410
vt 0.486441 0.021410
vt 0.494111 0.120800
vt 0.486441 0.120800
vt 0.494111 0.223770
vt 0.486441 0.223770
vt 0.508273 0.101382
vt 0.500603 0.101382
vt 0.500603 0.001992
vt 0.508273 0.001992
vt 0.514765 0.001992
vt 0.522435 0.001992
vt 0.522435 0.101382
vt 0.514765 0.101382
vt 0.536598 0.101382
vt 0.528927 0.101382
vt 0.528927 0.001992
vt 0.536598 0.001992
vt 0.543089 0.001992
vt 0.550760 0.001992
vt 0.550760 0.101382
vt 0.543089 0.101382
vn 0.000000 0.000000 1.000000
vn 0.000000 0.000000 1.000000
vn 0.000000 0.000000 1.000000
vn 0.000000 0.000000 1.000000
vn 0.000000 1.000000 0.000000
vn 0.000000 1.000000 0.000000
vn 0.000000 1.000000 0.000000
vn 0.000000 1.000000 0.000000
vn 0.000000 0.000000 -1.000000
vn 0.000000 0.000000 -1.000000
vn 0.000000 0.000000 -1.000000
vn 0.000000 0.000000 -1.000000
vn 1.000000 -0.000002 0.000000
vn 1.000000 -0.000001 0.000000
vn 1.000000 -0.000001 0.000000
vn 1.000000 -0.000002 0.000000
vn -1.000000 0.000000 0.000000
vn -1.000000 -0.000000 0.000000
vn -1.000000 -0.000000 0.000000
vn -1.000000 0.000000 0.000000
vn -1.000000 -0.000000 0.000000
vn -1.000000 -0.000000 0.000000
vn 0.000000 1.000000 0.000000
vn 0.000000 1.000000 0.000000
vn 1.000000 -0.000000 0.000000
vn 1.000000 -0.000000 0.000000
vn 0.000000 -1.000000 0.000000
vn 0.000000 -1.000000 0.000000
vn 0.000000 -1.000000 0.000000
vn 0.000000 -1.000000 0.000000
vn -1.000000 0.000000 0.000000
vn -1.000000 0.000000 0.000000
vn 0.000000 1.000000 0.000000
vn 0.000000 1.000000 0.000000
vn 1.000000 0.000001 0.000000
vn 1.000000 0.000001 0.000000
vn -1.000000 -0.000001 0.000000
vn -1.000000 -0.000001 0.000000
vn -1.000000 -0.000001 0.000000
vn -1.000000 -0.000001 0.000000
vn 0.000000 1.000000 0.000000
vn 0.000000 1.000000 0.000000
vn 0.000000 1.000000 0.000000
vn 0.000000 1.000000 0.000000
vn 1.000000 0.000001 0.000000
vn 1.000000 0.000001 0.000000
vn 1.000000 0.000001 0.000000
vn 1.000000 0.000001 0.000000
vn -1.000000 -0.000000 0.000000
vn -1.000000 -0.000000 0.000000
vn 0.000000 1.000000 0.000000
vn 0.000000 1.000000 0.000000
vn 1.000000 0.000000 0.000000
vn 1.000000 0.000000 0.000000
vn 0.000000 -1.000000 0.000000
vn 0.000000 -1.000000 0.000000
vn 0.000000 -1.000000 0.000000
vn 0.000000 -1.000000 0.000000
vn -1.000000 0.000000 0.000000
vn -1.000000 0.000000 0.000000
vn 0.000000 1.000000 0.000000
vn 0.000000 1.000000 0.000000
vn 1.000000 0.000000 0.000000
vn 1.000000 0.000000 0.000000
vn 0.000000 0.000000 -1.000000
vn 0.000000 0.000000 -1.000000
vn 0.000000 0.000000 -1.000000
vn 0.000000 0.000000 -1.000000
vn 1.000000 0.000000 0.000000
vn 1.000000 0.000000 0.000000
vn 1.000000 0.000000 0.000000
vn 1.000000 0.000000 0.000000
vn 0.000000 0.000000 1.000000
vn 0.000000 0.000000 1.000000
vn 0.000000 0.000000 1.000000
vn 0.000000 0.000000 1.000000
vn -1.000000 0.000000 0.000000
vn -1.000000 0.000000 0.000000
vn -1.000000 0.000000 0.000000
vn -1.000000 0.000000 0.000000
vn 0.000000 0.000000 -1.000000
vn 0.000000 0.000000 -1.000000
vn 0.000000 0.000000 -1.000000
vn 0.000000 0.000000 -1.000000
vn 1.000000 0.000000 0.000000
vn 1.000000 0.000000 0.000000
vn 1.000000 0.000000 0.000000
vn 1.000000 0.000000 0.000000
vn -1.000000 0.000000 0.000000
vn -1.000000 0.000000 0.000000
vn -1.000000 0.000000 0.000000
vn -1.000000 0.000000 0.000000
vn 1.000000 0.000000 0.000000
vn 1.000000 0.000000 0.000000
vn 1.000000 0.000000 0.000000
vn 1.000000 0.000000 0.000000
vn 0.000000 0.000000 1.000000
vn 0.000000 0.000000 1.000000
vn 0.000000 0.000000 1.000000
vn 0.000000 0.000000 1.000000
vn -1.000000 0.000000 0.000000
vn -1.000000 0.000000 0.000000
vn -1.000000 0.000000 0.000000
vn -1.000000 0.000000 0.000000
vn 0.000000 0.000000 -1.000000
vn 0.000000 0.000000 -1.000000
vn 0.000000 0.000000 -1.000000
vn 0.000000 0.000000 -1.000000
vn 1.000000 0.000000 0.000000
vn 1.000000 0.000000 0.000000
vn 1.000000 0.000000 0.000000
vn 1.000000 0.000000 0.000000
vn 0.000000 0.000000 1.000000
vn 0.000000 0.000000 1.000000
vn 0.000000 0.000000 1.000000
vn 0.000000 0.000000 1.000000
vn -1.000000 0.000000 0.000000
vn -1.000000 0.000000 0.000000
vn -1.000000 0.000000 0.000000
vn -1.000000 0.000000 0.000000
vn 0.000000 1.000000 0.000000
vn 0.000000 1.000000 0.000000
vn 0.000000 1.000000 0.000000
vn 0.000000 1.000000 0.000000
vn 0.000000 1.000000 0.000000
vn 0.000000 1.000000 0.000000
vn 0.000000 1.000000 0.000000
vn 0.000000 1.000000 0.000000
vn 0.000000 0.000000 -1.000000
vn 0.000000 0.000000 -1.000000
vn 0.000000 0.000000 -1.000000
vn 0.000000 0.000000 -1.000000
vn 1.000000 0.000000 0.000000
vn 1.000000 0.000000 0.000000
vn 1.000000 0.000000 0.000000
vn 1.000000 0.000000 0.000000
vn -1.000000 0.000000 0.000000
vn -1.000000 0.000000 0.000000
vn -1.000000 0.000000 0.000000
vn -1.000000 0.000000 0.000000
vn 1.000000 -0.000001 0.000000
vn 1.000000 -0.000001 0.000000
vn 1.000000 -0.000001 0.000000
vn 1.000000 -0.000001 0.000000
vn -1.000000 0.000001 0.000000
vn -1.000000 0.000001 0.000000
vn -1.000000 0.000001 0.000000
vn -1.000000 0.000001 0.000000
vn 1.000000 0.000000 0.000000
vn 1.000000 0.000000 0.000000
vn 1.000000 0.000000 0.000000
vn 1.000000 0.000000 0.000000
vn -1.000000 0.000000 0.000000
vn -1.000000 0.000000 0.000000
vn -1.000000 0.000000 0.000000
vn -1.000000 0.000000 0.000000
vn 1.000000 0.000000 0.000000
vn 1.000000 0.000000 0.000000
vn 1.000000 0.000000 0.000000
vn 1.000000 0.000000 0.000000
vn 0.000000 0.000000 1.000000
vn 0.000000 0.000000 1.000000
vn 0.000000 0.000000 1.000000
vn 0.000000 0.000000 1.000000
vn -1.000000 0.000000 0.000000
vn -1.000000 0.000000 0.000000
vn -1.000000 0.000000 0.000000
vn -1.000000 0.000000 0.000000
vn -1.000000 0.000000 0.000000
vn -1.000000 0.000000 0.000000
vn -1.000000 0.000000 0.000000
vn -1.000000 0.000000 0.000000
vn 1.000000 0.000000 0.000000
vn 1.000000 0.000000 0.000000
vn 1.000000 0.000000 0.000000
vn 1.000000 0.000000 0.000000
vn -1.000000 -0.000000 0.000000
vn -1.000000 -0.000000 0.000000
vn -1.000000 -0.000000 0.000000
vn -1.000000 -0.000000 0.000000
vn 1.000000 -0.000000 0.000000
vn 1.000000 -0.000000 0.000000
vn 1.000000 -0.000000 0.000000
vn 1.000000 -0.000000 0.000000
vn 0.000000 1.000000 0.000000
vn 0.000000 1.000000 0.000000
vn 0.000000 1.000000 0.000000
vn 0.000000 1.000000 0.000000
vn 1.000000 0.000000 0.000000
vn 1.000000 0.000000 0.000000
vn 1.000000 0.000000 0.000000
vn 1.000000 0.000000 0.000000
vn 1.000000 0.000000 0.000000
vn 1.000000 0.000000 0.000000
vn 1.000000 0.000000 0.000000
vn 1.000000 0.000000 0.000000
vn 1.000000 -0.000001 0.000000
vn 1.000000 -0.000001 0.000000
vn 1.000000 -0.000001 0.000000
vn 1.000000 -0.000001 0.000000
vn -1.000000 0.000000 0.000000
vn -1.000000 0.000000 0.000000
vn -1.000000 0.000000 0.000000
vn -1.000000 0.000000 0.000000
vn -1.000000 0.000000 0.000000
vn -1.000000 0.000000 0.000000
vn -1.000000 0.000000 0.000000
vn -1.000000 0.000000 0.000000
vn -1.000000 0.000001 0.000000
vn -1.000000 0.000001 0.000000
vn -1.000000 0.000001 0.000000
vn -1.000000 0.000001 0.000000
s off
g pCube188
usemtl blinn5SG
f 1/97/1 2/98/2 4/99/3 3/100/4
s 1
f 10/65/5 11/66/6 6/67/7 5/68/8
s off
f 5/105/9 6/106/10 8/107/11 7/108/12
s 2
f 12/1/13 8/2/14 6/3/15 11/4/16
s 3
f 7/33/17 9/34/18 10/35/19 5/36/20
f 9/34/18 13/39/21 14/40/22 10/35/19
s 1
f 14/69/23 15/70/24 11/66/6 10/65/5
s 2
f 16/7/25 12/1/13 11/4/16 15/8/26
s off
f 9/81/27 12/82/28 16/83/29 13/84/30
s 3
f 13/39/21 17/43/31 18/44/32 14/40/22
s 1
f 18/71/33 19/72/34 15/70/24 14/69/23
s 2
f 20/11/35 16/7/25 15/8/26 19/12/36
s 4
f 21/48/37 25/52/38 26/53/39 22/49/40
s 5
f 26/75/41 27/76/42 23/74/43 22/73/44
s 6
f 28/20/45 24/17/46 23/16/47 27/21/48
s 4
f 25/52/38 29/56/49 30/57/50 26/53/39
s 5
f 30/77/51 31/78/52 27/76/42 26/75/41
s 6
f 32/24/53 28/20/45 27/21/48 31/25/54
s off
f 25/85/55 28/86/56 32/87/57 29/88/58
s 4
f 29/56/49 1/59/59 3/60/60 30/57/50
s 5
f 3/79/61 4/80/62 31/78/52 30/77/51
s 6
f 2/27/63 32/24/53 31/25/54 4/28/64
s off
f 7/108/65 8/107/66 34/109/67 33/110/68
f 8/2/69 12/1/70 35/5/71 34/6/72
f 12/113/73 9/114/74 36/115/75 35/116/76
f 9/34/77 7/33/78 33/37/79 36/38/80
f 13/117/81 16/118/82 37/119/83 38/120/84
f 16/7/85 20/11/86 39/15/87 37/13/88
f 17/43/89 13/39/90 38/45/91 40/47/92
f 24/17/93 28/20/94 43/23/95 41/19/96
f 28/121/97 25/122/98 44/123/99 43/124/100
f 25/52/101 21/48/102 42/51/103 44/55/104
f 29/125/105 32/126/106 45/127/107 46/128/108
f 32/24/109 2/27/110 47/31/111 45/29/112
f 2/98/113 1/97/114 48/101/115 47/102/116
f 1/59/117 29/56/118 46/61/119 48/63/120
f 43/89/121 44/90/122 46/91/123 45/92/124
f 35/93/125 36/94/126 38/95/127 37/96/128
f 33/110/129 34/109/130 50/111/131 49/112/132
f 34/6/133 35/5/134 51/9/135 50/10/136
f 36/38/137 33/37/138 49/41/139 52/42/140
f 37/13/141 39/15/142 54/18/143 53/14/144
f 40/47/145 38/45/146 55/46/147 56/50/148
f 41/19/149 43/23/150 58/26/151 57/22/152
f 44/55/153 42/51/154 59/54/155 60/58/156
f 45/29/157 47/31/158 62/32/159 61/30/160
f 47/102/161 48/101/162 63/103/163 62/104/164
f 48/63/165 46/61/166 64/62/167 63/64/168
f 46/61/169 44/55/170 60/58/171 64/62/172
f 43/23/173 45/29/174 61/30/175 58/26/176
f 38/45/177 36/38/178 52/42/179 55/46/180
f 35/5/181 37/13/182 53/14/183 51/9/184
f 19/72/185 18/71/186 22/73/187 23/74/188
f 20/11/189 19/12/190 23/16/191 24/17/192
f 39/15/193 20/11/194 24/17/195 41/19/196
f 54/18/197 39/15/198 41/19/199 57/22/200
f 18/44/201 17/43/202 21/48/203 22/49/204
f 17/43/205 40/47/206 42/51/207 21/48/208
f 40/47/209 56/50/210 59/54/211 42/51/212
