# This file uses centimeters as units for non-parametric coordinates.

mtllib correction_mur_rdc.mtl
g default
v 1400.629636 -3642.713915 -1259.336426
v 1400.629636 -3642.713915 -1237.011597
v 1400.629636 -3566.948046 -1259.336426
v 1400.629636 -3566.948046 -1237.011597
v 4299.571775 -3566.948046 -1259.336426
v 4299.571775 -3566.948046 -1237.011597
v 4299.571775 -3642.713915 -1259.336426
v 4299.571775 -3642.713915 -1237.011597
v 3970.866453 -3642.713915 -1259.336426
v 3970.866453 -3566.948046 -1259.336426
v 3970.866453 -3566.948046 -1237.011597
v 3970.866453 -3642.713915 -1237.011597
v 3730.756345 -3642.713915 -1259.336426
v 3730.756345 -3566.948046 -1259.336426
v 3730.756345 -3566.948046 -1237.011597
v 3730.756345 -3642.713915 -1237.011597
v 2841.847654 -3642.713915 -1259.336426
v 2841.847654 -3566.948046 -1259.336426
v 2841.847654 -3566.948046 -1237.011597
v 2841.847654 -3642.713915 -1237.011597
v 2650.423826 -3642.713915 -1259.336426
v 2650.423826 -3566.948046 -1259.336426
v 2650.423826 -3566.948046 -1237.011597
v 2650.423826 -3642.713915 -1237.011597
v 2390.325437 -3642.713915 -1259.336426
v 2390.325437 -3566.948046 -1259.336426
v 2390.325437 -3566.948046 -1237.011597
v 2390.325437 -3642.713915 -1237.011597
v 2198.583738 -3642.713915 -1259.336426
v 2198.583738 -3566.948046 -1259.336426
v 2198.583738 -3566.948046 -1237.011597
v 2198.583738 -3642.713915 -1237.011597
v 4299.571775 -3931.990770 -1259.336426
v 4299.571775 -3931.990770 -1237.011597
v 3970.866453 -3931.990770 -1237.011597
v 3970.866453 -3931.990770 -1259.336426
v 3730.756345 -3931.990770 -1237.011597
v 3730.756345 -3931.990770 -1259.336426
v 2841.847654 -3931.990770 -1237.011597
v 2841.847654 -3931.990770 -1259.336426
v 2650.423826 -3931.990770 -1237.011597
v 2650.423826 -3931.990770 -1259.336426
v 2390.325437 -3931.990770 -1237.011597
v 2390.325437 -3931.990770 -1259.336426
v 2198.583738 -3931.990770 -1237.011597
v 2198.583738 -3931.990770 -1259.336426
v 1400.629636 -3931.990770 -1237.011597
v 1400.629636 -3931.990770 -1259.336426
v 4299.571775 -4212.440721 -1259.336426
v 4299.571775 -4212.440721 -1237.011597
v 3970.866453 -4212.440721 -1237.011597
v 3970.866453 -4212.440721 -1259.336426
v 3730.756345 -4212.440721 -1237.011597
v 2841.847654 -4212.440721 -1237.011597
v 3730.756345 -4212.440721 -1259.336426
v 2841.847654 -4212.440721 -1259.336426
v 2650.423826 -4212.440721 -1237.011597
v 2390.325437 -4212.440721 -1237.011597
v 2650.423826 -4212.440721 -1259.336426
v 2390.325437 -4212.440721 -1259.336426
v 2198.583738 -4212.440721 -1237.011597
v 1400.629636 -4212.440721 -1237.011597
v 1400.629636 -4212.440721 -1259.336426
v 2198.583738 -4212.440721 -1259.336426
v 3485.549802 -4212.440721 -1259.336426
v 3485.549802 -3931.990526 -1259.336426
v 3485.549802 -3642.713915 -1259.336426
v 3485.549802 -3566.948046 -1259.336304
v 3485.549802 -3566.948046 -1237.011597
v 3485.549802 -3642.713915 -1237.011719
v 3485.549802 -3931.990526 -1237.011719
v 3485.549802 -4212.440721 -1237.011719
v 3292.321775 -4212.440721 -1259.336426
v 3292.321775 -3931.990526 -1259.336426
v 3292.321775 -3642.713915 -1259.336426
v 3292.321775 -3566.948046 -1259.336304
v 3292.321775 -3566.948046 -1237.011597
v 3292.321775 -3642.713915 -1237.011597
v 3292.321775 -3931.990526 -1237.011597
v 3292.321775 -4212.440721 -1237.011597
vt 0.211522 0.114928
vt 0.211522 0.001992
vt 0.237554 0.001992
vt 0.237554 0.114928
vt 0.112133 0.114928
vt 0.112133 0.001992
vt 0.211522 0.197425
vt 0.237554 0.197425
vt 0.015776 0.114928
vt 0.015776 0.001992
vt 0.211522 0.281673
vt 0.237554 0.281673
vt 0.112133 0.281673
vt 0.112133 0.197425
vt 0.211522 0.348062
vt 0.237554 0.348062
vt 0.015776 0.281673
vt 0.015776 0.197425
vt 0.211522 0.502836
vt 0.237554 0.502836
vt 0.112133 0.348062
vt 0.015776 0.348062
vt 0.112133 0.502836
vt 0.237554 0.568605
vt 0.211522 0.568605
vt 0.015776 0.502836
vt 0.211522 0.657969
vt 0.237554 0.657969
vt 0.112133 0.568605
vt 0.015776 0.568605
vt 0.112133 0.657969
vt 0.211522 0.723848
vt 0.237554 0.723848
vt 0.015776 0.657969
vt 0.211522 0.998008
vt 0.237554 0.998008
vt 0.112133 0.723848
vt 0.015776 0.723848
vt 0.112133 0.998008
vt 0.015776 0.998008
vt 0.440271 0.998008
vt 0.440271 0.885072
vt 0.466302 0.885072
vt 0.466302 0.998008
vt 0.340881 0.998008
vt 0.340881 0.885072
vt 0.440271 0.802575
vt 0.466302 0.802575
vt 0.244525 0.998008
vt 0.244525 0.885072
vt 0.440271 0.718327
vt 0.466302 0.718327
vt 0.340881 0.802575
vt 0.340882 0.718327
vt 0.440271 0.651938
vt 0.466302 0.651938
vt 0.244525 0.802575
vt 0.244525 0.718327
vt 0.440271 0.497165
vt 0.466302 0.497165
vt 0.340882 0.651938
vt 0.244525 0.651938
vt 0.340881 0.497165
vt 0.440271 0.431395
vt 0.466302 0.431395
vt 0.244525 0.497165
vt 0.440271 0.342031
vt 0.466302 0.342031
vt 0.244525 0.431395
vt 0.340881 0.431395
vt 0.340881 0.342031
vt 0.440271 0.276153
vt 0.466302 0.276153
vt 0.244525 0.342031
vt 0.440271 0.001992
vt 0.466302 0.001992
vt 0.340881 0.276153
vt 0.244525 0.276153
vt 0.340881 0.001992
vt 0.244525 0.001992
vt 0.001413 0.885072
vt 0.009083 0.885072
vt 0.009083 0.998008
vt 0.001413 0.998008
vt 0.001413 0.802575
vt 0.009083 0.802575
vt 0.001413 0.718327
vt 0.009083 0.718327
vt 0.001413 0.651938
vt 0.009083 0.651938
vt 0.001413 0.497164
vt 0.009083 0.497164
vt 0.001413 0.431395
vt 0.009083 0.431395
vt 0.001413 0.342031
vt 0.009083 0.342031
vt 0.001413 0.276152
vt 0.009083 0.276152
vt 0.001413 0.001992
vt 0.009083 0.001992
vt 0.615133 0.001992
vt 0.622803 0.001992
vt 0.622803 0.084489
vt 0.615133 0.084489
vt 0.657690 0.001992
vt 0.665361 0.001992
vt 0.665361 0.067871
vt 0.657690 0.067871
vt 0.679547 0.067871
vt 0.671876 0.067871
vt 0.671876 0.001992
vt 0.679547 0.001992
vt 0.693733 0.001992
vt 0.693733 0.067761
vt 0.686062 0.067761
vt 0.686062 0.001992
vt 0.707919 0.001992
vt 0.707919 0.067761
vt 0.700248 0.067761
vt 0.700248 0.001992
vt 0.629319 0.068381
vt 0.629319 0.001992
vt 0.636989 0.001992
vt 0.636989 0.068381
vt 0.643505 0.068381
vt 0.643505 0.001992
vt 0.651175 0.001992
vt 0.651175 0.068381
vt 0.473273 0.197738
vt 0.480943 0.197738
vt 0.480943 0.223770
vt 0.473273 0.223770
vt 0.473273 0.098349
vt 0.480943 0.098349
vt 0.473273 0.001992
vt 0.480943 0.001992
vt 0.487459 0.001992
vt 0.495129 0.001992
vt 0.495129 0.028024
vt 0.487459 0.028024
vt 0.495129 0.127413
vt 0.487459 0.127413
vt 0.495129 0.223770
vt 0.487459 0.223770
vt 0.509315 0.197738
vt 0.501645 0.197738
vt 0.501645 0.098349
vt 0.509315 0.098349
vt 0.509315 0.001992
vt 0.501645 0.001992
vt 0.515831 0.001992
vt 0.523501 0.001992
vt 0.523501 0.101381
vt 0.515831 0.101381
vt 0.523501 0.197738
vt 0.515831 0.197738
vt 0.537687 0.101382
vt 0.530017 0.101382
vt 0.530017 0.001992
vt 0.537687 0.001992
vt 0.544203 0.001992
vt 0.551873 0.001992
vt 0.551873 0.101381
vt 0.544203 0.101381
vt 0.566059 0.001992
vt 0.566059 0.101382
vt 0.558389 0.101382
vt 0.558389 0.001992
vt 0.580245 0.001992
vt 0.580245 0.101381
vt 0.572575 0.101381
vt 0.572575 0.001992
vt 0.586761 0.101381
vt 0.586761 0.001992
vt 0.594431 0.001992
vt 0.594431 0.101381
vt 0.600947 0.101381
vt 0.600947 0.001992
vt 0.608617 0.001992
vt 0.608617 0.101381
vn -1.000000 0.000000 0.000000
vn -1.000000 0.000000 0.000000
vn -1.000000 0.000000 0.000000
vn -1.000000 0.000000 0.000000
vn 0.000000 1.000000 0.000000
vn 0.000000 1.000000 0.000000
vn 0.000000 1.000000 0.000000
vn 0.000000 1.000000 0.000000
vn 1.000000 0.000000 -0.000000
vn 1.000000 0.000000 -0.000000
vn 1.000000 0.000000 -0.000000
vn 1.000000 0.000000 -0.000000
vn 0.000000 0.000000 1.000000
vn 0.000000 0.000000 1.000000
vn 0.000000 0.000000 1.000000
vn 0.000000 0.000000 1.000000
vn -0.000000 0.000000 -1.000000
vn -0.000000 0.000000 -1.000000
vn -0.000000 0.000000 -1.000000
vn -0.000000 0.000000 -1.000000
vn -0.000000 0.000001 -1.000000
vn -0.000000 0.000001 -1.000000
vn -0.000000 1.000000 0.000000
vn -0.000000 1.000000 0.000000
vn -0.000000 0.000000 1.000000
vn -0.000000 0.000000 1.000000
vn 0.000000 -1.000000 0.000000
vn 0.000000 -1.000000 0.000000
vn 0.000000 -1.000000 0.000000
vn 0.000000 -1.000000 0.000000
vn -0.000000 0.000002 -1.000000
vn -0.000000 0.000002 -1.000000
vn -0.000000 1.000000 0.000000
vn -0.000000 1.000000 0.000000
vn 0.000000 0.000000 1.000000
vn 0.000000 0.000000 1.000000
vn -0.000000 0.000000 -1.000000
vn -0.000000 0.000000 -1.000000
vn -0.000000 0.000000 -1.000000
vn -0.000000 0.000000 -1.000000
vn 0.000000 1.000000 0.000000
vn 0.000000 1.000000 0.000000
vn 0.000000 1.000000 0.000000
vn 0.000000 1.000000 0.000000
vn 0.000000 0.000000 1.000000
vn 0.000000 0.000000 1.000000
vn 0.000000 0.000000 1.000000
vn 0.000000 0.000000 1.000000
vn -0.000000 0.000000 -1.000000
vn -0.000000 0.000000 -1.000000
vn 0.000000 1.000000 0.000000
vn 0.000000 1.000000 0.000000
vn 0.000000 0.000000 1.000000
vn 0.000000 0.000000 1.000000
vn 0.000000 -1.000000 0.000000
vn 0.000000 -1.000000 0.000000
vn 0.000000 -1.000000 0.000000
vn 0.000000 -1.000000 0.000000
vn -0.000000 0.000000 -1.000000
vn -0.000000 0.000000 -1.000000
vn 0.000000 1.000000 0.000000
vn 0.000000 1.000000 0.000000
vn 0.000000 0.000000 1.000000
vn 0.000000 0.000000 1.000000
vn 1.000000 0.000000 -0.000000
vn 1.000000 0.000000 -0.000000
vn 1.000000 0.000000 -0.000000
vn 1.000000 0.000000 -0.000000
vn 0.000000 0.000000 1.000000
vn 0.000000 0.000000 1.000000
vn 0.000000 0.000000 1.000000
vn 0.000000 0.000000 1.000000
vn -1.000000 0.000000 0.000000
vn -1.000000 0.000000 0.000000
vn -1.000000 0.000000 0.000000
vn -1.000000 0.000000 0.000000
vn -0.000000 0.000000 -1.000000
vn -0.000000 0.000000 -1.000000
vn -0.000000 0.000000 -1.000000
vn -0.000000 0.000000 -1.000000
vn 1.000000 0.000000 -0.000000
vn 1.000000 0.000000 -0.000000
vn 1.000000 0.000000 -0.000000
vn 1.000000 0.000000 -0.000000
vn -0.000000 0.000000 1.000000
vn -0.000000 0.000000 1.000000
vn -0.000000 0.000000 1.000000
vn -0.000000 0.000000 1.000000
vn -0.000000 0.000000 -1.000000
vn -0.000000 0.000000 -1.000000
vn -0.000000 0.000000 -1.000000
vn -0.000000 0.000000 -1.000000
vn 0.000000 0.000000 1.000000
vn 0.000000 0.000000 1.000000
vn 0.000000 0.000000 1.000000
vn 0.000000 0.000000 1.000000
vn -1.000000 0.000000 0.000000
vn -1.000000 0.000000 0.000000
vn -1.000000 0.000000 0.000000
vn -1.000000 0.000000 0.000000
vn -0.000000 0.000000 -1.000000
vn -0.000000 0.000000 -1.000000
vn -0.000000 0.000000 -1.000000
vn -0.000000 0.000000 -1.000000
vn 1.000000 0.000000 -0.000000
vn 1.000000 0.000000 -0.000000
vn 1.000000 0.000000 -0.000000
vn 1.000000 0.000000 -0.000000
vn 0.000000 0.000000 1.000000
vn 0.000000 0.000000 1.000000
vn 0.000000 0.000000 1.000000
vn 0.000000 0.000000 1.000000
vn -1.000000 0.000000 0.000000
vn -1.000000 0.000000 0.000000
vn -1.000000 0.000000 0.000000
vn -1.000000 0.000000 0.000000
vn -0.000000 0.000000 -1.000000
vn -0.000000 0.000000 -1.000000
vn -0.000000 0.000000 -1.000000
vn -0.000000 0.000000 -1.000000
vn 0.000000 1.000000 0.000000
vn 0.000000 1.000000 0.000000
vn 0.000000 1.000000 0.000000
vn 0.000000 1.000000 0.000000
vn 1.000000 0.000000 -0.000000
vn 1.000000 0.000000 -0.000000
vn 1.000000 0.000000 -0.000000
vn 1.000000 0.000000 -0.000000
vn 0.000000 0.000000 1.000000
vn 0.000000 0.000000 1.000000
vn 0.000000 0.000000 1.000000
vn 0.000000 0.000000 1.000000
vn -0.000000 0.000000 -1.000000
vn -0.000000 0.000000 -1.000000
vn -0.000000 0.000000 -1.000000
vn -0.000000 0.000000 -1.000000
vn -0.000000 0.000000 1.000000
vn 0.000000 0.000000 1.000000
vn -0.000000 0.000000 1.000000
vn -0.000000 0.000000 1.000000
vn -0.000000 0.000000 -1.000000
vn -0.000000 0.000000 -1.000000
vn -0.000000 0.000000 -1.000000
vn -0.000000 0.000000 -1.000000
vn 0.000000 0.000000 1.000000
vn 0.000000 0.000000 1.000000
vn 0.000000 0.000000 1.000000
vn 0.000000 0.000000 1.000000
vn -0.000000 0.000000 -1.000000
vn -0.000000 0.000000 -1.000000
vn -0.000000 0.000000 -1.000000
vn -0.000000 0.000000 -1.000000
vn 0.000000 0.000000 1.000000
vn 0.000000 0.000000 1.000000
vn 0.000000 0.000000 1.000000
vn 0.000000 0.000000 1.000000
vn -1.000000 0.000000 0.000000
vn -1.000000 0.000000 0.000000
vn -1.000000 0.000000 0.000000
vn -1.000000 0.000000 0.000000
vn -0.000000 0.000000 -1.000000
vn -0.000000 0.000000 -1.000000
vn -0.000000 0.000000 -1.000000
vn -0.000000 0.000000 -1.000000
vn -0.000000 0.000000 -1.000000
vn -0.000000 0.000000 -1.000000
vn -0.000000 0.000000 -1.000000
vn -0.000000 0.000000 -1.000000
vn 0.000000 0.000000 1.000000
vn 0.000000 0.000000 1.000000
vn 0.000000 0.000000 1.000000
vn 0.000000 0.000000 1.000000
vn 0.000000 1.000000 0.000000
vn 0.000000 1.000000 0.000000
vn 0.000000 1.000000 0.000000
vn 0.000000 1.000000 0.000000
vn 0.000000 0.000000 1.000000
vn 0.000000 0.000000 1.000000
vn 0.000000 0.000000 1.000000
vn 0.000000 0.000000 1.000000
vn 0.000000 0.000000 1.000000
vn 0.000000 0.000000 1.000000
vn 0.000000 0.000000 1.000000
vn 0.000000 0.000000 1.000000
vn -0.000000 0.000000 -1.000000
vn -0.000000 0.000000 -1.000000
vn -0.000000 0.000000 -1.000000
vn -0.000000 0.000000 -1.000000
vn -0.000000 0.000000 -1.000000
vn -0.000000 0.000000 -1.000000
vn -0.000000 0.000000 -1.000000
vn -0.000000 0.000000 -1.000000
vn -0.000000 0.000000 -1.000000
vn -0.000000 0.000000 -1.000000
vn 0.000000 0.000002 -1.000000
vn 0.000000 0.000002 -1.000000
vn 0.000000 1.000000 -0.000000
vn 0.000000 1.000000 -0.000000
vn 0.000000 0.000000 1.000000
vn 0.000000 0.000000 1.000000
vn 0.000000 0.000000 1.000000
vn 0.000000 0.000000 1.000000
vn -0.000000 0.000000 -1.000000
vn -0.000000 0.000000 -1.000000
vn -0.000000 0.000000 -1.000000
vn -0.000000 0.000000 -1.000000
vn -0.000000 0.000000 -1.000000
vn -0.000000 0.000000 -1.000000
vn 0.000000 0.000002 -1.000000
vn 0.000000 0.000002 -1.000000
vn 0.000000 1.000000 -0.000000
vn 0.000000 1.000000 -0.000000
vn 0.000000 0.000000 1.000000
vn 0.000000 0.000000 1.000000
vn 0.000000 0.000000 1.000000
vn 0.000000 0.000000 1.000000
vn 0.000000 0.000000 1.000000
vn 0.000000 0.000000 1.000000
vn 0.000000 0.000000 1.000000
vn 0.000000 0.000000 1.000000
vn 0.000000 1.000000 0.000000
vn 0.000000 1.000000 0.000000
vn 0.000000 1.000000 0.000000
vn 0.000000 1.000000 0.000000
vn -1.000000 0.000000 0.000000
vn -1.000000 0.000000 0.000000
vn -1.000000 0.000000 0.000000
vn -1.000000 0.000000 0.000000
vn 1.000000 0.000000 -0.000000
vn 1.000000 0.000000 -0.000000
vn 1.000000 0.000000 -0.000000
vn 1.000000 0.000000 -0.000000
vn 0.000000 -1.000000 0.000000
vn 0.000000 -1.000000 0.000000
vn 0.000000 -1.000000 0.000000
vn 0.000000 -1.000000 0.000000
vn 0.000000 1.000000 0.000000
vn 0.000000 1.000000 0.000000
vn 0.000000 1.000000 0.000000
vn 0.000000 1.000000 0.000000
vn -1.000000 0.000000 0.000000
vn -1.000000 0.000000 0.000000
vn -1.000000 0.000000 0.000000
vn -1.000000 0.000000 0.000000
vn 1.000000 0.000000 -0.000000
vn 1.000000 0.000000 -0.000000
vn 1.000000 0.000000 -0.000000
vn 1.000000 0.000000 -0.000000
vn 0.000002 -1.000000 -0.000000
vn 0.000002 -1.000000 -0.000000
vn 0.000002 -1.000000 -0.000000
vn 0.000002 -1.000000 -0.000000
vn -1.000000 0.000000 0.000000
vn -1.000000 0.000000 0.000000
vn -1.000000 0.000000 0.000000
vn -1.000000 0.000000 0.000000
vn 1.000000 0.000000 -0.000000
vn 1.000000 0.000000 -0.000000
vn 1.000000 0.000000 -0.000000
vn 1.000000 0.000000 -0.000000
s off
g correction_mur_rdc
usemtl blinn5SG
f 1/129/1 2/130/2 4/131/3 3/132/4
s 1
f 10/81/5 11/82/6 6/83/7 5/84/8
s off
f 5/137/9 6/138/10 8/139/11 7/140/12
s 2
f 12/1/13 8/2/14 6/3/15 11/4/16
s 3
f 7/41/17 9/42/18 10/43/19 5/44/20
f 9/42/18 13/47/21 14/48/22 10/43/19
s 1
f 14/85/23 15/86/24 11/82/6 10/81/5
s 2
f 16/7/25 12/1/13 11/4/16 15/8/26
s off
f 9/101/27 12/102/28 16/103/29 13/104/30
s 3
f 13/47/21 67/51/31 68/52/32 14/48/22
s 1
f 68/87/33 69/88/34 15/86/24 14/85/23
s 2
f 70/11/35 16/7/25 15/8/26 69/12/36
s 4
f 21/64/37 25/67/38 26/68/39 22/65/40
s 5
f 26/95/41 27/96/42 23/94/43 22/93/44
s 6
f 28/27/45 24/25/46 23/24/47 27/28/48
s 4
f 25/67/38 29/72/49 30/73/50 26/68/39
s 5
f 30/97/51 31/98/52 27/96/42 26/95/41
s 6
f 32/32/53 28/27/45 27/28/48 31/33/54
s off
f 25/105/55 28/106/56 32/107/57 29/108/58
s 4
f 29/72/49 1/75/59 3/76/60 30/73/50
s 5
f 3/99/61 4/100/62 31/98/52 30/97/51
s 6
f 2/35/63 32/32/53 31/33/54 4/36/64
s off
f 7/140/65 8/139/66 34/141/67 33/142/68
f 8/2/69 12/1/70 35/5/71 34/6/72
f 12/145/73 9/146/74 36/147/75 35/148/76
f 9/42/77 7/41/78 33/45/79 36/46/80
f 13/151/81 16/152/82 37/153/83 38/154/84
f 16/7/85 70/11/86 71/13/87 37/14/88
f 67/51/89 13/47/90 38/53/91 66/54/92
f 24/25/93 28/27/94 43/31/95 41/29/96
f 28/157/97 25/158/98 44/159/99 43/160/100
f 25/67/101 21/64/102 42/70/103 44/71/104
f 29/161/105 32/162/106 45/163/107 46/164/108
f 32/32/109 2/35/110 47/39/111 45/37/112
f 2/130/113 1/129/114 48/133/115 47/134/116
f 1/75/117 29/72/118 46/77/119 48/79/120
f 43/109/121 44/110/122 46/111/123 45/112/124
f 33/142/125 34/141/126 50/143/127 49/144/128
f 34/6/129 35/5/130 51/9/131 50/10/132
f 36/46/133 33/45/134 49/49/135 52/50/136
s 7
f 37/14/137 71/13/138 72/17/139 53/18/140
s 8
f 66/54/141 38/53/142 55/57/143 65/58/144
s off
f 41/29/145 43/31/146 58/34/147 57/30/148
f 44/71/149 42/70/150 59/69/151 60/74/152
f 45/37/153 47/39/154 62/40/155 61/38/156
f 47/134/157 48/133/158 63/135/159 62/136/160
f 48/79/161 46/77/162 64/78/163 63/80/164
f 46/77/165 44/71/166 60/74/167 64/78/168
f 43/31/169 45/37/170 61/38/171 58/34/172
f 19/92/173 18/91/174 22/93/175 23/94/176
f 20/19/177 19/20/178 23/24/179 24/25/180
f 54/26/181 39/23/182 41/29/183 57/30/184
f 18/60/185 17/59/186 21/64/187 22/65/188
f 40/63/189 56/66/190 59/69/191 42/70/192
s 8
f 74/61/193 66/54/141 65/58/144 73/62/194
s 3
f 68/52/32 67/51/31 75/55/195 76/56/196
s 1
f 76/89/197 77/90/198 69/88/34 68/87/33
s 2
f 78/15/199 70/11/35 69/12/36 77/16/200
s 7
f 72/17/139 71/13/138 79/21/201 80/22/202
s 8
f 40/63/203 74/61/193 73/62/194 56/66/204
s off
f 17/59/205 75/55/206 74/61/207 40/63/208
s 3
f 76/56/196 75/55/195 17/59/209 18/60/210
s 1
f 18/91/211 19/92/212 77/90/198 76/89/197
s 2
f 20/19/213 78/15/199 77/16/200 19/20/214
s off
f 79/21/215 78/15/216 20/19/217 39/23/218
s 7
f 80/22/202 79/21/201 39/23/219 54/26/220
s off
f 41/113/221 39/114/222 40/115/223 42/116/224
f 39/165/225 20/166/226 17/167/227 40/168/228
f 24/169/229 41/170/230 42/171/231 21/172/232
f 20/117/233 24/118/234 21/119/235 17/120/236
f 66/121/237 74/122/238 79/123/239 71/124/240
f 67/173/241 66/174/242 71/175/243 70/176/244
f 74/177/245 75/178/246 78/179/247 79/180/248
f 75/125/249 67/126/250 70/127/251 78/128/252
f 51/149/253 35/148/254 36/147/255 52/150/256
f 37/153/257 53/155/258 55/156/259 38/154/260
